<?xml version="1.0" encoding="UTF-8"?>
<svg version="1.1" xmlns="http://www.w3.org/2000/svg" width="64" height="64">
<path d="M0 0 C3.88136584 0.55612455 5.62756918 2.27673138 8.328125 5.03515625 C9.52695312 6.24848633 9.52695312 6.24848633 10.75 7.48632812 C11.575 8.33646484 12.4 9.18660156 13.25 10.0625 C14.09046875 10.91650391 14.9309375 11.77050781 15.796875 12.65039062 C17.87147597 14.76035412 19.93875832 16.87699708 22 19 C25.37593745 17.5486668 27.46112477 15.71771229 29.96875 13.05078125 C31.07283203 11.90319336 31.07283203 11.90319336 32.19921875 10.73242188 C33.73893488 9.11297511 35.27276431 7.48791194 36.80078125 5.85742188 C37.90486328 4.71563477 37.90486328 4.71563477 39.03125 3.55078125 C39.69705078 2.84606689 40.36285156 2.14135254 41.04882812 1.4152832 C43 0 43 0 45.24804688 0.27807617 C45.82619141 0.51631104 46.40433594 0.7545459 47 1 C46.44387545 4.88136584 44.72326862 6.62756918 41.96484375 9.328125 C41.15595703 10.12734375 40.34707031 10.9265625 39.51367188 11.75 C38.66353516 12.575 37.81339844 13.4 36.9375 14.25 C36.08349609 15.09046875 35.22949219 15.9309375 34.34960938 16.796875 C32.23964588 18.87147597 30.12300292 20.93875832 28 23 C29.4513332 26.37593745 31.28228771 28.46112477 33.94921875 30.96875 C35.09680664 32.07283203 35.09680664 32.07283203 36.26757812 33.19921875 C37.88702489 34.73893488 39.51208806 36.27276431 41.14257812 37.80078125 C42.28436523 38.90486328 42.28436523 38.90486328 43.44921875 40.03125 C44.15393311 40.69705078 44.85864746 41.36285156 45.5847168 42.04882812 C47 44 47 44 46.72192383 46.24804688 C46.48368896 46.82619141 46.2454541 47.40433594 46 48 C42.11863416 47.44387545 40.37243082 45.72326862 37.671875 42.96484375 C36.87265625 42.15595703 36.0734375 41.34707031 35.25 40.51367188 C34.425 39.66353516 33.6 38.81339844 32.75 37.9375 C31.90953125 37.08349609 31.0690625 36.22949219 30.203125 35.34960938 C28.12852403 33.23964588 26.06124168 31.12300292 24 29 C20.62406255 30.4513332 18.53887523 32.28228771 16.03125 34.94921875 C15.29519531 35.71427734 14.55914062 36.47933594 13.80078125 37.26757812 C12.26106512 38.88702489 10.72723569 40.51208806 9.19921875 42.14257812 C8.46316406 42.90376953 7.72710937 43.66496094 6.96875 44.44921875 C6.30294922 45.15393311 5.63714844 45.85864746 4.95117188 46.5847168 C3 48 3 48 0.75195312 47.72192383 C0.17380859 47.48368896 -0.40433594 47.2454541 -1 47 C-0.44387545 43.11863416 1.27673138 41.37243082 4.03515625 38.671875 C4.84404297 37.87265625 5.65292969 37.0734375 6.48632812 36.25 C7.33646484 35.425 8.18660156 34.6 9.0625 33.75 C10.34350586 32.48929688 10.34350586 32.48929688 11.65039062 31.203125 C13.76035412 29.12852403 15.87699708 27.06124168 18 25 C16.5486668 21.62406255 14.71771229 19.53887523 12.05078125 17.03125 C11.28572266 16.29519531 10.52066406 15.55914062 9.73242188 14.80078125 C8.11297511 13.26106512 6.48791194 11.72723569 4.85742188 10.19921875 C4.09623047 9.46316406 3.33503906 8.72710937 2.55078125 7.96875 C1.84606689 7.30294922 1.14135254 6.63714844 0.4152832 5.95117188 C-1 4 -1 4 -0.72192383 1.75195312 C-0.48368896 1.17380859 -0.2454541 0.59566406 0 0 Z " fill="#FFFFFF" transform="translate(9,8)"/>
</svg>
